<?xml version="1.0" encoding="UTF-8"?><svg id="Layer_1" xmlns="http://www.w3.org/2000/svg" viewBox="0 0 1080 1080"><defs><style>.cls-1{fill:#1b3a5c;}</style></defs><g id="Layer_1-2"><path class="cls-1" d="M671.59,579.85c23.87,120.03,21.71,203.54-73.29,288.15-41.64,37.09-91.16,61.74-146.74,67.35-71.4,7.22-133.69-37.09-147.79-107.04-16.05-79.84,144.07-94.88,219.64-108.76l114.7-21.1c9.38-88.22-72.12-274.99-13.38-309.47,67.62-39.7,224.19,147.18,175.72,262.44-14.21,33.87-50.13,62.02-85.28,67.79-12.88,2.11-16.38-16.54-15.77-24.15.83-11.1,8.33-20.38,20.26-25.71,33.15-14.88,51.69-47.47,43.36-84.67-14.16-63.24-54.58-121.64-113.21-157.07-2.22,54.24,11.88,102.1,21.82,152.18l-.06.06ZM444.4,889.71c81.67-9.05,152.07-64.13,184.38-140.47l-181.83,29.76c-27.26,4.44-51.97,11.38-76.67,23.37-7.11,4.28-20.93,12.1-18.77,22.87,8.22,40.81,47.3,69.51,92.94,64.4l-.06.06Z"/><path class="cls-1" d="M268.01,509.23c-13.99-61.96,12.88-115.43,67.18-140.69,9.05-4.22,19.65-13.05,31.09-5.44,12.83,8.55,11.94,37.2-4.16,43.64-37.42,14.99-59.85,49.14-49.8,90.94,14.93,61.96,54.02,117.87,111.98,154.73,4.39-46.47-7.38-88.78-16.93-131.58-22.32-99.88-32.81-194.15,34.98-273.88,45.86-53.91,104.99-92.55,175.61-101.6,75.56-9.66,145.68,37.64,153.68,114.76,2.39,22.93-17.88,43.47-37.09,54.02-76.95,42.36-205.2,41.7-298.2,68.18-7.83,90.05,77.01,288.09,8.49,310.97-24.15,8.05-49.14-1.78-69.01-17.6-52.52-41.75-92.61-99.16-107.82-166.5v.06ZM723.11,255.5c-7-42.47-48.97-70.45-93.55-65.51-80.5,8.94-151.57,65.13-184.1,141.24l131.19-21.15c48.91-7.88,151.4-24.87,146.46-54.58Z"/></g></svg>